<svg width="318" height="220" viewBox="0 0 318 220" fill="none" xmlns="http://www.w3.org/2000/svg">
<mask id="mask0_1733_18641" style="mask-type:alpha" maskUnits="userSpaceOnUse" x="0" y="0" width="318" height="220">
<path d="M48.6988 173.24C48.6972 128.666 48.6699 126.922 47.9529 125.746C47.5435 125.074 46.5459 124.211 45.7361 123.826C43.5047 122.767 42.0133 123.242 38.8936 126.003C35.6289 128.892 30.8835 131.329 26.9014 132.16C15.3515 134.573 3.02721 126.363 0.533799 114.596C-1.12609 106.763 1.10967 99.3985 6.89869 93.6321C11.4238 89.1248 16.2528 87.1475 22.7557 87.1387C29.0718 87.1304 33.6361 88.937 38.4418 93.3471C42.171 96.7695 44.4912 97.1242 47.2173 94.6887C47.6458 94.3058 48.0738 93.9234 48.5022 93.5405C48.5684 77.9733 48.6342 62.4056 48.7004 46.8384C48.7666 31.2711 48.8324 15.7035 48.8986 0.136268C63.9827 0.102578 79.0667 0.0692727 94.1508 0.0355827C134.899 -0.055182 139.465 -0.00324326 140.028 0.55917C140.87 1.40101 140.828 1.61781 139.562 2.95151C135.254 7.49363 132.701 12.4499 131.709 18.1953C128.882 34.5778 141.808 49.8637 158.488 49.8637C162.803 49.8637 166.502 48.956 170.766 46.8515C177.543 43.5063 182.88 37.009 184.885 29.664C185.362 27.9181 185.594 25.6185 185.604 22.5298C185.629 15.4165 183.911 10.7662 179.054 4.79965C176.631 1.8235 176.351 1.13388 177.258 0.38122C177.652 0.0546315 189.909 -0.0381416 222.937 0.0355771C237.984 0.0692658 253.03 0.102569 268.077 0.136258C268.144 15.6171 268.209 31.0979 268.276 46.5788C268.342 62.0596 268.407 77.5404 268.474 93.0213C268.752 93.3942 269.03 93.7668 269.309 94.1398C269.768 94.7549 270.786 95.5032 271.571 95.8016C273.907 96.691 275.504 96.1278 278.534 93.3471C283.287 88.9857 287.966 87.134 294.236 87.134C300.737 87.134 305.516 89.0963 310.134 93.6618C315.895 99.3568 318.218 107.197 316.412 114.857C314.386 123.455 307.256 130.302 298.398 132.158C291.697 133.562 283.603 131.178 278.668 126.346C275.453 123.197 272.962 122.586 270.342 124.303C268.176 125.722 268.276 123.368 268.276 173.321C268.276 188.72 268.276 204.118 268.276 219.516C253.049 219.483 237.823 219.449 222.597 219.416C207.37 219.382 192.144 219.349 176.918 219.315C176.876 219.019 176.834 218.722 176.792 218.426C176.705 217.818 177.264 216.858 178.559 215.389C181.227 212.363 183.308 208.758 184.525 205.055C185.429 202.306 185.571 201.205 185.571 196.922C185.572 192.663 185.429 191.534 184.554 188.884C181.655 180.113 174.466 173.117 165.889 170.721C161.824 169.585 155.627 169.494 151.75 170.514C142.171 173.033 134.71 180.517 132.092 190.234C131.178 193.627 131.181 200.216 132.097 203.659C133.129 207.532 135.18 211.469 137.752 214.511C140.96 218.306 140.88 218.167 140.284 218.885C139.814 219.451 135.291 219.513 94.2317 219.513C79.0549 219.513 63.8773 219.513 48.7004 219.513C48.7 204.089 48.6992 188.664 48.6988 173.24Z" fill="white"/>
</mask>
<g mask="url(#mask0_1733_18641)">
<rect x="-410.371" y="-147" width="1138" height="514" fill="white"/>
<rect x="-410.371" y="-147" width="1138" height="514" fill="url(#paint0_linear_1733_18641)"/>
</g>
<defs>
<linearGradient id="paint0_linear_1733_18641" x1="-410.371" y1="-147" x2="726.428" y2="369.643" gradientUnits="userSpaceOnUse">
<stop offset="0.0199609" stop-color="#70F6FF" stop-opacity="0.329412"/>
<stop offset="0.417813" stop-color="#DD6CF1" stop-opacity="0.258824"/>
<stop offset="0.706017" stop-color="#E56AFD" stop-opacity="0.709804"/>
<stop offset="1" stop-color="#7BB7FD"/>
</linearGradient>
</defs>
</svg>
