<svg width="220" height="318" viewBox="0 0 220 318" fill="none" xmlns="http://www.w3.org/2000/svg">
<mask id="mask0_1733_18638" style="mask-type:alpha" maskUnits="userSpaceOnUse" x="0" y="0" width="220" height="318">
<path d="M46.2764 48.6988C90.8506 48.6972 92.5945 48.6699 93.7705 47.9529C94.4419 47.5435 95.3055 46.5459 95.6899 45.7361C96.749 43.5047 96.2746 42.0133 93.5136 38.8936C90.6243 35.6289 88.1875 30.8835 87.356 26.9014C84.9438 15.3515 93.1537 3.02721 104.921 0.533803C112.754 -1.12609 120.118 1.10968 125.884 6.89869C130.392 11.4238 132.369 16.2528 132.378 22.7557C132.386 29.0718 130.579 33.6361 126.169 38.4418C122.747 42.171 122.392 44.4912 124.828 47.2173C125.211 47.6458 125.593 48.0738 125.976 48.5022C141.543 48.5684 157.111 48.6342 172.678 48.7004C188.245 48.7666 203.813 48.8324 219.38 48.8986C219.414 63.9827 219.447 79.0668 219.481 94.1509C219.572 134.899 219.52 139.465 218.957 140.028C218.115 140.87 217.899 140.828 216.565 139.562C212.023 135.254 207.066 132.701 201.321 131.709C184.939 128.882 169.653 141.808 169.653 158.488C169.653 162.803 170.56 166.502 172.665 170.766C176.01 177.543 182.507 182.88 189.852 184.885C191.598 185.362 193.898 185.594 196.987 185.604C204.1 185.629 208.75 183.911 214.717 179.054C217.693 176.631 218.382 176.351 219.135 177.258C219.462 177.652 219.554 189.909 219.481 222.937C219.447 237.984 219.414 253.03 219.38 268.077C203.899 268.144 188.418 268.209 172.938 268.276C157.457 268.342 141.976 268.407 126.495 268.474C126.122 268.752 125.75 269.03 125.377 269.309C124.761 269.768 124.013 270.786 123.715 271.571C122.825 273.907 123.389 275.504 126.169 278.534C130.531 283.287 132.382 287.966 132.382 294.236C132.382 300.737 130.42 305.516 125.855 310.134C120.16 315.895 112.319 318.218 104.659 316.412C96.0613 314.386 89.2141 307.256 87.358 298.398C85.9541 291.697 88.3385 283.603 93.1704 278.668C96.3189 275.453 96.9301 272.962 95.2131 270.342C93.7942 268.176 96.1485 268.276 46.1952 268.276C30.7968 268.276 15.3984 268.276 0 268.276C0.0336893 253.049 0.0669693 237.823 0.100659 222.597C0.134348 207.37 0.167652 192.144 0.201341 176.918C0.497808 176.876 0.79387 176.834 1.09034 176.792C1.69833 176.705 2.65829 177.264 4.12754 178.559C7.15363 181.227 10.758 183.308 14.4614 184.525C17.2101 185.429 18.3115 185.571 22.5948 185.571C26.8532 185.572 27.9824 185.429 30.6319 184.554C39.4038 181.655 46.3993 174.466 48.7956 165.889C49.9311 161.824 50.0219 155.627 49.0025 151.75C46.4837 142.171 38.9996 134.71 29.282 132.092C25.8896 131.178 19.3 131.181 15.857 132.097C11.9839 133.129 8.04778 135.18 5.00504 137.752C1.21043 140.96 1.34955 140.88 0.630973 140.284C0.0649926 139.814 0.00316902 135.291 0.00316902 94.2317C0.00316902 79.0549 0.00316902 63.8773 0.00316902 48.7004C15.4277 48.7 30.8519 48.6992 46.2764 48.6988Z" fill="white"/>
</mask>
<g mask="url(#mask0_1733_18638)">
<rect x="-230.855" y="-97" width="1138" height="514" fill="white"/>
<rect x="-230.855" y="-97" width="1138" height="514" fill="url(#paint0_linear_1733_18638)"/>
</g>
<defs>
<linearGradient id="paint0_linear_1733_18638" x1="-230.855" y1="-97" x2="905.943" y2="419.643" gradientUnits="userSpaceOnUse">
<stop offset="0.0199609" stop-color="#70F6FF" stop-opacity="0.329412"/>
<stop offset="0.417813" stop-color="#DD6CF1" stop-opacity="0.258824"/>
<stop offset="0.706017" stop-color="#E56AFD" stop-opacity="0.709804"/>
<stop offset="1" stop-color="#7BB7FD"/>
</linearGradient>
</defs>
</svg>
