<svg width="67" height="32" viewBox="0 0 67 32" fill="none" xmlns="http://www.w3.org/2000/svg">
<path d="M39.6523 12.3398C39.973 12.3488 40.2584 12.3935 40.499 12.4736C40.7395 12.5627 40.9537 12.6788 41.123 12.8213C41.2924 12.9639 41.4359 13.1333 41.5518 13.3115H41.5781V12.5186H43.7178V18.6074C43.7266 19.1688 43.6457 19.6855 43.4854 20.1846C43.3249 20.6659 43.0752 21.0945 42.7275 21.46C42.3888 21.8252 41.9343 22.1105 41.3818 22.3154C40.8292 22.5204 40.1604 22.627 39.376 22.627C39.0641 22.6269 38.7609 22.609 38.4668 22.5645C38.1816 22.5199 37.9231 22.4755 37.6914 22.4131C37.4686 22.3507 37.281 22.289 37.1562 22.2266V20.4346C37.3256 20.5326 37.5223 20.6217 37.7451 20.7197C37.9678 20.8088 38.2084 20.8888 38.4756 20.9512C38.743 21.0136 39.0291 21.0498 39.3232 21.0498C39.7153 21.0409 40.0537 20.9868 40.3389 20.8799C40.624 20.773 40.8558 20.6306 41.043 20.4346C41.2302 20.2385 41.3728 20.0152 41.4619 19.7656C41.551 19.516 41.5957 19.2395 41.5957 18.9453V18.3926H41.5693C41.4357 18.6154 41.2665 18.8032 41.0615 18.9814C40.8565 19.1508 40.624 19.2935 40.3477 19.3916C40.0715 19.4896 39.7596 19.5429 39.4033 19.543C38.9576 19.543 38.5558 19.4632 38.1992 19.3027C37.8427 19.1423 37.5396 18.9192 37.29 18.6162C37.0404 18.3131 36.8447 17.9561 36.7109 17.5371C36.5772 17.1271 36.5059 16.6547 36.5059 16.1377C36.5148 15.5317 36.5857 14.9968 36.7461 14.5244C36.8976 14.0521 37.1211 13.651 37.4062 13.3301C37.6914 13.0003 38.0211 12.7592 38.4043 12.5898C38.7786 12.4205 39.1978 12.3399 39.6523 12.3398ZM47.8359 12.3398C48.1567 12.3488 48.442 12.3934 48.6826 12.4736C48.9232 12.5627 49.1373 12.6787 49.3066 12.8213C49.4759 12.9638 49.6185 13.1334 49.7344 13.3115H49.7617V12.5186H51.9004V18.6074C51.9003 19.1688 51.8293 19.6856 51.6689 20.1846C51.5085 20.6659 51.2588 21.0945 50.9111 21.46C50.5635 21.8253 50.1179 22.1105 49.5654 22.3154C49.0128 22.5205 48.344 22.627 47.5596 22.627C47.2476 22.627 46.9446 22.609 46.6504 22.5645C46.3652 22.5199 46.1067 22.4755 45.875 22.4131C45.6433 22.3507 45.4646 22.2889 45.3398 22.2266V20.4346C45.5092 20.5326 45.7059 20.6217 45.9287 20.7197C46.1514 20.8088 46.392 20.8888 46.6592 20.9512C46.9265 21.0136 47.2118 21.0498 47.5059 21.0498C47.8981 21.0409 48.2372 20.9869 48.5225 20.8799C48.8076 20.7729 49.0394 20.6306 49.2266 20.4346C49.4138 20.2385 49.5564 20.0152 49.6455 19.7656C49.7346 19.5161 49.7793 19.2394 49.7793 18.9453V18.3926H49.7529C49.6103 18.6154 49.4492 18.8032 49.2441 18.9814C49.0392 19.1508 48.8075 19.2936 48.5312 19.3916C48.2549 19.4897 47.9425 19.543 47.5859 19.543C47.1404 19.5429 46.7393 19.4631 46.3828 19.3027C46.0263 19.1423 45.7232 18.9192 45.4736 18.6162C45.224 18.3131 45.0282 17.9561 44.8945 17.5371C44.7608 17.1271 44.6895 16.6547 44.6895 16.1377C44.6984 15.5316 44.7693 14.9968 44.9297 14.5244C45.0812 14.052 45.3046 13.651 45.5898 13.3301C45.8751 13.0003 46.2046 12.7592 46.5879 12.5898C46.9623 12.4205 47.3813 12.3398 47.8359 12.3398ZM10.7021 7.55273C14.5442 7.55273 17.6465 10.6639 17.6465 14.4971C17.6464 18.3302 14.5352 21.4414 10.7021 21.4414C6.86922 21.4412 3.75788 18.33 3.75781 14.4971C3.75781 10.6641 6.86918 7.55293 10.7021 7.55273ZM32.5215 12.3486C33.2342 12.3487 33.8045 12.4648 34.2412 12.6875C34.678 12.9104 34.9992 13.2409 35.1953 13.6777C35.3913 14.1145 35.4893 14.6494 35.4893 15.2822V19.3916C35.4581 19.3916 33.4717 19.3916 33.4482 19.3828V18.3926H33.4219C33.2079 18.767 32.9219 19.0529 32.5742 19.249C32.2267 19.4539 31.8256 19.5518 31.3623 19.5518C30.8899 19.5428 30.4977 19.4537 30.1768 19.2754C29.8559 19.0971 29.6147 18.8569 29.4453 18.5449C29.2759 18.2329 29.1963 17.8758 29.1963 17.4746C29.1874 17.1984 29.2323 16.9312 29.3125 16.6816C29.3927 16.4321 29.5259 16.2001 29.7041 15.9951C29.8824 15.7901 30.1325 15.6114 30.4355 15.4688C30.7474 15.3262 31.1218 15.2284 31.5762 15.166L33.4658 14.916C33.4658 14.6666 33.4125 14.4613 33.3145 14.292C33.2164 14.1228 33.0738 13.9981 32.8867 13.918C32.7085 13.8378 32.4858 13.793 32.2363 13.793C31.9511 13.793 31.6562 13.8292 31.3799 13.8916C31.1038 13.954 30.8364 14.0426 30.5781 14.1494C30.3196 14.2564 30.0967 14.3818 29.8828 14.5244V12.9287C30.0165 12.8574 30.1769 12.7949 30.3818 12.7236C30.5869 12.6523 30.8101 12.5896 31.0508 12.5361C31.2913 12.4827 31.5406 12.438 31.79 12.4023C32.0396 12.3667 32.2897 12.3486 32.5215 12.3486ZM59.6387 12.3486C60.2 12.3487 60.6722 12.4382 61.0732 12.6074C61.4744 12.7768 61.805 13.0173 62.0635 13.3203C62.322 13.6234 62.509 13.9719 62.6338 14.373C62.7585 14.774 62.8203 15.2017 62.8203 15.665V16.5566H58.3008C58.3186 16.8508 58.3994 17.1092 58.542 17.332C58.6846 17.5549 58.8897 17.7336 59.166 17.8584C59.4423 17.9921 59.7813 18.0547 60.2002 18.0547C60.4675 18.0547 60.7173 18.0369 60.9668 17.9834C61.2075 17.9299 61.4394 17.8673 61.6533 17.7871C61.8583 17.7069 62.0456 17.6176 62.2061 17.5195V19.0439C62.0724 19.1152 61.885 19.1864 61.6533 19.2666C61.4216 19.3379 61.1451 19.4094 60.8154 19.4629C60.4946 19.5164 60.1287 19.5517 59.7188 19.5518C58.9521 19.5428 58.3101 19.4093 57.7842 19.124C57.2584 18.8388 56.8573 18.4378 56.5898 17.9209C56.3224 17.4039 56.1797 16.7796 56.1797 16.0576C56.1797 15.5317 56.2511 15.0681 56.3848 14.667C56.5185 14.2659 56.6969 13.9182 56.9287 13.624C57.1605 13.3299 57.4275 13.0886 57.7217 12.9014C58.0158 12.7142 58.3284 12.5716 58.6582 12.4824C58.9879 12.3934 59.309 12.3486 59.6387 12.3486ZM10.7021 9.5498C7.96563 9.55 5.75488 11.7605 5.75488 14.4971C5.75495 17.2336 7.96567 19.4441 10.7021 19.4443C13.4388 19.4443 15.6503 17.2337 15.6504 14.4971C15.6504 11.7604 13.4388 9.5498 10.7021 9.5498ZM55.1904 9.21973V19.3916H53.0508V9.21973H55.1904ZM28.5898 9.76367V10.9766L23.7227 17.626H28.5986V19.3828H20.7812V18.1348L25.7646 11.5205H21.1465V9.76367H28.5898ZM10.8281 15.5381H14.1709L12.165 18.4531V16.9561H7.85938L10.5781 12.9707H7.85059V11.5625H13.5469L10.8281 15.5381ZM32.3789 16.2979C32.1205 16.3424 31.9152 16.3964 31.7637 16.4766C31.6122 16.5567 31.5049 16.6634 31.4336 16.7881C31.3623 16.9129 31.3359 17.0561 31.3359 17.2344C31.336 17.3858 31.3711 17.5198 31.4424 17.6445C31.5137 17.7692 31.6211 17.8672 31.7637 17.9385C31.9062 18.0097 32.0754 18.0547 32.2803 18.0547C32.5475 18.0458 32.7794 17.983 32.9844 17.8584C33.1805 17.7336 33.3411 17.5548 33.457 17.3408C33.5639 17.127 33.6269 16.8778 33.627 16.5928V16.1289C33.627 16.1289 32.4089 16.2916 32.3789 16.2979ZM40.2139 13.9893C39.902 13.9893 39.6261 14.0701 39.4033 14.2305C39.1715 14.3909 39.0018 14.6314 38.877 14.9434C38.7522 15.2553 38.6895 15.6295 38.6895 16.084C38.6895 16.4406 38.7436 16.7617 38.8506 17.0381C38.9665 17.3232 39.1269 17.5368 39.3408 17.6973C39.5547 17.8577 39.8219 17.9384 40.1338 17.9385C40.4278 17.9296 40.6864 17.8584 40.9092 17.707C41.132 17.5555 41.302 17.3408 41.4268 17.0645C41.5515 16.7882 41.6133 16.467 41.6133 16.0928C41.6133 16.0773 41.6133 15.541 41.6045 15.5498C41.6045 15.3537 41.578 15.1657 41.5156 14.9785C41.4621 14.7914 41.3639 14.631 41.248 14.4795C41.1322 14.3281 40.9897 14.2121 40.8115 14.123C40.6422 14.0339 40.4367 13.9893 40.2139 13.9893ZM48.3975 13.9893C48.0855 13.9893 47.8088 14.07 47.5859 14.2305C47.3544 14.3909 47.1853 14.6316 47.0605 14.9434C46.9358 15.2553 46.8731 15.6295 46.873 16.084C46.873 16.4406 46.936 16.7617 47.043 17.0381C47.1499 17.323 47.3098 17.5369 47.5234 17.6973C47.7374 17.8577 48.0054 17.9385 48.3174 17.9385C48.6114 17.9295 48.87 17.8584 49.0928 17.707C49.3156 17.5555 49.4846 17.3408 49.6094 17.0645C49.7341 16.7881 49.7969 16.4671 49.7969 16.0928C49.7969 16.0773 49.7969 15.541 49.7881 15.5498C49.7881 15.3537 49.7616 15.1657 49.6992 14.9785C49.6457 14.7914 49.5475 14.631 49.4316 14.4795C49.3158 14.3281 49.1733 14.2122 48.9951 14.123C48.8257 14.0339 48.6203 13.9893 48.3975 13.9893ZM59.8701 13.7754C59.683 13.7754 59.505 13.8202 59.3535 13.9004C59.202 13.9806 59.068 14.0968 58.9521 14.2305C58.8364 14.3729 58.7383 14.5241 58.667 14.7021C58.5957 14.8803 58.5512 15.0678 58.5244 15.2549H61.0732C61.0732 15.0589 61.0472 14.8803 61.0205 14.7021C60.9849 14.5241 60.9132 14.3729 60.8242 14.2305C60.7262 14.0878 60.6097 13.9806 60.4492 13.9004C60.2888 13.8202 60.1018 13.7754 59.8701 13.7754Z" fill="#DFE0E4"/>
</svg>
